<svg width="118" height="33" viewBox="0 0 118 33" fill="none" xmlns="http://www.w3.org/2000/svg">
<path d="M60.5947 25.0116H67.5051C67.1294 27.4428 65.9359 29.3804 63.9247 30.8317C61.9134 32.2757 59.3718 32.9977 56.307 32.9977C52.5645 32.9977 49.6397 31.9147 47.5254 29.7487C45.411 27.5828 44.3501 24.5991 44.3501 20.805C44.3501 17.0109 45.4036 13.983 47.5106 11.7434C49.6176 9.49637 52.4614 8.37656 56.0492 8.37656C59.5854 8.37656 62.4071 9.45216 64.4993 11.596C66.5916 13.7399 67.6377 16.6131 67.6377 20.2082V22.3668H51.7688V22.8383C51.7688 24.2455 52.1961 25.3947 53.0507 26.2714C53.9053 27.1481 55.0251 27.5902 56.4102 27.5902C57.4342 27.5902 58.3183 27.3618 59.0624 26.8976C59.8138 26.4335 60.3221 25.8073 60.5947 25.0116ZM56.1744 13.8135C55.0104 13.8135 54.0232 14.204 53.2275 14.9923C52.4319 15.7806 51.9825 16.7825 51.8794 18.0055H60.4253C60.3516 16.753 59.9317 15.7437 59.1508 14.9702C58.3698 14.1966 57.3826 13.8135 56.1744 13.8135Z" fill="#CCCCCC"/>
<path d="M11.4633 23.2657C11.4633 24.3266 11.6991 25.0559 12.1706 25.4538C12.6421 25.8516 13.3788 26.0505 14.3807 26.0505H15.6626V32.4599H13.0546C9.87202 32.4599 7.55872 31.8043 6.11476 30.4929C4.67079 29.1816 3.94881 26.9788 3.94881 23.8846V15.3092H0V9.29754H3.94881V3.46274H11.4633V9.29754H15.6626V15.3092H11.4633V23.2657Z" fill="#CCCCCC"/>
<path d="M27.4725 3.24159V11.5149C28.9165 9.62893 31.0088 8.68593 33.7494 8.68593C36.0774 8.68593 38.0223 9.41528 39.5842 10.874C41.146 12.3327 41.9269 14.5502 41.9269 17.5265V32.3346H34.4124V19.2947C34.4124 18.0275 34.103 17.0698 33.4841 16.4215C32.8653 15.7732 32.0254 15.449 30.9646 15.449C29.9921 15.449 29.167 15.7805 28.4892 16.4436C27.8114 17.1066 27.4725 18.057 27.4725 19.2947V32.3346H19.958V0.198944L27.4725 3.24159Z" fill="#CCCCCC"/>
<path d="M81.8349 32.4746V7.47774H74.814L78.6596 0.0589905H89.9682V32.4746H81.8349Z" fill="#232323"/>
<path d="M118 16.6572C118 21.6669 116.939 25.6009 114.817 28.4668C112.695 31.3326 109.778 32.7618 106.065 32.7618C102.352 32.7618 99.4271 31.3031 97.2907 28.3931C95.1542 25.4831 94.0859 21.468 94.0859 16.3625C94.0859 11.2718 95.1542 7.2714 97.2907 4.36137C99.4271 1.45133 102.352 0 106.065 0C109.837 0 112.769 1.4587 114.861 4.36874C116.954 7.27877 118 11.3749 118 16.6572ZM102.05 16.3551C102.05 19.8103 102.367 22.3299 103.008 23.9212C103.649 25.5125 104.665 26.3082 106.065 26.3082C107.435 26.3082 108.437 25.5125 109.078 23.9139C109.719 22.3152 110.036 19.7956 110.036 16.3625C110.036 12.9515 109.719 10.4393 109.078 8.83325C108.437 7.21983 107.435 6.41681 106.065 6.41681C104.658 6.41681 103.634 7.2051 103 8.78168C102.367 10.3435 102.05 12.8705 102.05 16.3551Z" fill="#232323"/>
</svg>
